<?xml version="1.0" encoding="UTF-8"?>
<svg width="752pt" height="752pt" version="1.1" viewBox="0 0 752 752" xmlns="http://www.w3.org/2000/svg">
 <path d="m546.36 263.39c-7.8789-25.762-31.871-44.559-60.188-44.559-26.723 0-44.852 16.031-58.004 33.266-13.16-17.234-31.281-33.266-58.012-33.266-26.797 0-49.668 16.867-58.734 40.523-3.7383 7.9922-4.2109 22.418-4.2109 22.418 0 23.969 8.5625 47.707 21.266 68.914-1.6133 1.8906-3.168 3.8125-4.6523 5.75-13.16-17.234-31.281-33.258-58.012-33.258-26.797 0-49.668 16.867-58.734 40.52-3.7383 7.9922-4.2109 22.418-4.2109 22.418 0 74.527 82.547 147.05 116.29 147.05h9.3359c27.227 0 86.176-47.227 107.94-104.61 32.656-4.2617 100.02-63.484 111.09-128.77-0.007813-0.003906 4.3008-20.891-1.1641-36.395zm-103.72 143.39c0.17578-0.88672 0.375-1.7695 0.52734-2.6562 0 0 4.3203-20.887-1.1562-36.391-7.8789-25.762-31.871-44.559-60.188-44.559-15.723 0-28.453 5.5703-38.961 13.648-9.832-17.09-16.457-35.922-16.457-55.055 0-24.113 19.629-43.734 43.738-43.734 18.527 0 33.473 10.77 49.977 36.012l8.0352 12.293 8.0352-12.293c16.5-25.242 31.441-36.012 49.969-36.012 24.113 0 43.738 19.621 43.738 43.734 0.011718 57.383-59.34 112.15-87.258 125.01z" fill="#ff001b"/>
</svg>
